# xmcd CD database file
#
# Track frame offsets:
#	151
#	14612
#	43291
#	60880
#	78685
#	85071
#	114132
#	126504
#	159420
#	169745
#	195651
#	215187
#	229941
#	245550
#
# Disc length: 3620 seconds
#
# Revision: 0
# Processed by: cddbd v1.5.1PL0 Copyright (c) Steve Scherf et al.
# Submitted via: CDex 1.51
#
DISCID=c00e220e
DTITLE=朴路美 - 王子さまLv1.5　グリーンディスク
DYEAR=2003
DGENRE=Game
TTITLE0=不思議なたまご
TTITLE1=育児日記をつけよう！
TTITLE2=カナン様、気取り気取られ
TTITLE3=ちっちゃ王子さまの気まぐれ
TTITLE4=セレストのあやしいバイト-その1-
TTITLE5=ちっちゃ王子さまとの休日
TTITLE6=セレストのあやしいバイト-その2-
TTITLE7=コンテスト再挑戦
TTITLE8=AM　09:50　目覚め
TTITLE9=AM　10:05　コンビニでバトル
TTITLE10=PM　02:15　監禁
TTITLE11=PM　03:00　出社
TTITLE12=PM　07:00　入浴
TTITLE13=セレスト、大ピンチ!?
EXTD=YEAR: 2003/4/25
EXTT0=
EXTT1=
EXTT2=
EXTT3=
EXTT4=
EXTT5=
EXTT6=
EXTT7=
EXTT8=
EXTT9=
EXTT10=
EXTT11=
EXTT12=
EXTT13=
PLAYORDER=
